<?xml version="1.0" encoding="UTF-8"?><svg id="Lag_2" xmlns="http://www.w3.org/2000/svg" viewBox="0 0 386 385"><defs><style>.cls-1{fill:none;}.cls-2{fill:#f2f2f2;}.cls-3{fill:#e6e6e6;}.cls-4{fill:#999;}.cls-5{fill:#b3b3b3;}.cls-6{fill:#ccc;}.cls-7{fill:gray;}</style></defs><g id="Capa_1"><g><polygon class="cls-5" points="208.89 132.91 218.82 194.3 177.62 194.3 167.68 132.9 208.89 132.91"/><polygon class="cls-4" points="218.82 194.3 184.93 303.83 143.72 303.83 177.62 194.3 218.82 194.3"/><polygon class="cls-3" points="140.7 38.75 208.89 132.91 167.68 132.9 99.5 38.74 140.7 38.75"/><polygon class="cls-7" points="184.93 303.83 94.14 378.33 52.93 378.33 143.72 303.83 184.93 303.83"/><polygon class="cls-6" points="170.47 132.9 102.29 38.74 45.69 10.29 45.68 10.29 3.19 12.33 3.19 149.88 29.38 149.88 39.24 174.32 50 194.3 28.67 228.24 26.97 230.95 3.19 229.61 3.19 378.33 55.72 378.33 146.51 303.83 180.41 194.3 170.47 132.9"/><polygon class="cls-2" points="140.7 38.75 99.5 38.74 42.9 10.29 80.52 8.49 140.7 38.75"/></g><rect id="_Udsnit_" class="cls-1" width="386" height="385"/></g></svg>