<?xml version="1.0" encoding="UTF-8"?><svg id="Lag_2" xmlns="http://www.w3.org/2000/svg" viewBox="0 0 384.91 369.84"><defs><style>.cls-1{fill:#f2f2f2;}.cls-2{fill:#e6e6e6;}.cls-3{fill:#999;}.cls-4{fill:#b3b3b3;}.cls-5{fill:#ccc;}.cls-6{fill:gray;}</style></defs><g id="Capa_1"><g><polygon class="cls-4" points="374.98 124.42 384.91 185.81 343.71 185.81 333.77 124.41 374.98 124.42"/><polygon class="cls-3" points="384.91 185.81 351.02 295.34 309.81 295.34 343.71 185.81 384.91 185.81"/><polygon class="cls-2" points="306.79 30.26 374.98 124.42 333.77 124.41 265.59 30.25 306.79 30.26"/><polygon class="cls-6" points="351.02 295.34 260.23 369.84 219.02 369.84 309.81 295.34 351.02 295.34"/><path class="cls-5" d="M192.68,141.39h-35.69l-25.01,44.42,19.04,34.43,39.25,2.22,1.7-2.71,21.33-33.94-10.75-19.98-9.87-24.44Zm141.09-16.98l9.94,61.4-33.9,109.53-90.79,74.5h-89.26l-58.35-31.38L2.34,230.76,0,152.23,51.54,51.1,117.9,6.17,208.98,1.8h0l56.6,28.45,68.18,94.16Z"/><polygon class="cls-1" points="306.79 30.26 265.59 30.25 208.99 1.8 246.61 0 306.79 30.26"/></g></g></svg>