<?xml version="1.0" encoding="UTF-8"?><svg id="Lag_2" xmlns="http://www.w3.org/2000/svg" viewBox="0 0 527.42 527.06"><defs><style>.cls-1{fill:none;}.cls-2{fill:#f2f2f2;}.cls-3{fill:#e6e6e6;}.cls-4{fill:#999;}.cls-5{fill:#b3b3b3;}.cls-6{fill:#ccc;}.cls-7{fill:gray;}</style></defs><g id="Lag_2-2"><g id="Capa_1"><g><polygon class="cls-5" points="247.41 204.05 286.92 252.07 251.33 272.84 211.81 224.81 247.41 204.05"/><polygon class="cls-4" points="286.92 252.07 312.85 363.76 277.25 384.52 251.33 272.84 286.92 252.07"/><polygon class="cls-3" points="141.06 157.09 247.41 204.05 211.81 224.81 105.46 177.84 141.06 157.09"/><polygon class="cls-7" points="312.85 363.76 271.97 473.86 236.38 494.63 277.25 384.52 312.85 363.76"/><polygon class="cls-6" points="214.22 223.41 107.87 176.44 44.65 180.39 44.64 180.39 8.97 203.57 78.29 322.37 100.91 309.17 121.74 325.32 141.1 337.15 139.78 377.21 139.68 380.41 118.47 391.24 193.41 519.69 238.79 493.22 279.66 383.12 253.74 271.43 214.22 223.41"/><polygon class="cls-2" points="141.06 157.09 105.46 177.84 42.24 181.79 73.83 161.28 141.06 157.09"/></g><rect id="_Udsnit_" class="cls-1" x="70.71" y="71.03" width="386" height="385" transform="translate(-96.87 168.81) rotate(-30.26)"/></g></g></svg>