<?xml version="1.0" encoding="UTF-8"?><svg id="Lag_2" xmlns="http://www.w3.org/2000/svg" viewBox="0 0 519.4 518.97"><defs><style>.cls-1{fill:none;}.cls-2{fill:#f2f2f2;}.cls-3{fill:#e6e6e6;}.cls-4{fill:#999;}.cls-5{fill:#b3b3b3;}.cls-6{fill:#ccc;}.cls-7{fill:gray;}</style></defs><g id="Lag_2-2"><g id="Capa_1"><g><polygon class="cls-5" points="218.3 305.2 237.57 246.07 274.2 264.92 254.94 324.06 218.3 305.2"/><polygon class="cls-4" points="237.57 246.07 317.82 164.19 354.47 183.05 274.2 264.92 237.57 246.07"/><polygon class="cls-3" points="235.84 420.12 218.3 305.2 254.94 324.06 272.47 438.99 235.84 420.12"/><polygon class="cls-7" points="317.82 164.19 432.64 139.5 469.28 158.36 354.47 183.05 317.82 164.19"/><polygon class="cls-6" points="252.46 322.79 269.99 437.71 307.29 488.91 307.3 488.91 346.01 506.54 408.96 384.24 385.68 372.26 388.09 346.01 387.67 323.33 422.17 302.91 424.92 301.28 445.45 313.35 513.51 181.12 466.8 157.08 351.98 181.77 271.72 263.64 252.46 322.79"/><polygon class="cls-2" points="235.84 420.12 272.47 438.99 309.77 490.19 275.5 474.57 235.84 420.12"/></g><rect id="_Udsnit_" class="cls-1" x="67.2" y="66.48" width="385" height="386" transform="translate(-89.87 371.64) rotate(-62.77)"/></g></g></svg>