<?xml version="1.0" encoding="UTF-8"?><svg id="Lag_2" xmlns="http://www.w3.org/2000/svg" viewBox="0 0 386 385"><defs><style>.cls-1{fill:none;}.cls-2{fill:#f2f2f2;}.cls-3{fill:#e6e6e6;}.cls-4{fill:#999;}.cls-5{fill:#b3b3b3;}.cls-6{fill:#ccc;}.cls-7{fill:gray;}</style></defs><g id="Capa_1"><g><polygon class="cls-5" points="177.11 252.09 167.18 190.7 208.38 190.7 218.32 252.1 177.11 252.09"/><polygon class="cls-4" points="167.18 190.7 201.07 81.17 242.28 81.17 208.38 190.7 167.18 190.7"/><polygon class="cls-3" points="245.3 346.25 177.11 252.09 218.32 252.1 286.5 346.26 245.3 346.25"/><polygon class="cls-7" points="201.07 81.17 291.86 6.67 333.07 6.67 242.28 81.17 201.07 81.17"/><polygon class="cls-6" points="215.53 252.1 283.71 346.26 340.31 374.71 340.32 374.71 382.81 372.67 382.81 235.12 356.62 235.12 346.76 210.68 336 190.7 357.33 156.76 359.03 154.05 382.81 155.39 382.81 6.67 330.28 6.67 239.49 81.17 205.59 190.7 215.53 252.1"/><polygon class="cls-2" points="245.3 346.25 286.5 346.26 343.1 374.71 305.48 376.51 245.3 346.25"/></g><rect id="_Udsnit_" class="cls-1" width="386" height="385"/></g></svg>